<?xml version="1.0" encoding="UTF-8" standalone="no"?>
<svg
   xmlns:dc="http://purl.org/dc/elements/1.1/"
   xmlns:cc="http://creativecommons.org/ns#"
   xmlns:rdf="http://www.w3.org/1999/02/22-rdf-syntax-ns#"
   xmlns:svg="http://www.w3.org/2000/svg"
   xmlns="http://www.w3.org/2000/svg"
   xmlns:sodipodi="http://sodipodi.sourceforge.net/DTD/sodipodi-0.dtd"
   xmlns:inkscape="http://www.inkscape.org/namespaces/inkscape"
   version="1.1"
   id="Layer_1"
   x="0px"
   y="0px"
   width="100"
   height="100"
   viewBox="-945 -210.002 100 99.999998"
   enable-background="new -945 -210.002 1045 730.002"
   xml:space="preserve"
   inkscape:version="0.48.3.1 r9886"
   sodipodi:docname="0.svg"><defs
   id="defs10" />
  <metadata
   id="metadata509">
    <rdf:RDF>
      <cc:Work
   rdf:about="">
        <dc:format>image/svg+xml</dc:format>
        <dc:type
   rdf:resource="http://purl.org/dc/dcmitype/StillImage" />
      </cc:Work>
    </rdf:RDF>
  </metadata>
  <sodipodi:namedview
   pagecolor="#ffffff"
   bordercolor="#666666"
   borderopacity="1"
   objecttolerance="10"
   gridtolerance="10"
   guidetolerance="10"
   inkscape:pageopacity="0"
   inkscape:pageshadow="2"
   inkscape:window-width="477"
   inkscape:window-height="417"
   id="namedview505"
   showgrid="false"
   showguides="true"
   inkscape:guide-bbox="true"
   inkscape:snap-bbox="false"
   inkscape:zoom="0.7984555"
   inkscape:cx="524.41773"
   inkscape:cy="-381.09605"
   inkscape:window-x="2"
   inkscape:window-y="2"
   inkscape:window-maximized="0"
   inkscape:current-layer="Layer_1" />
  <g
   id="g3514"
   transform="translate(0,-0.00200708)">
    <title
   id="title3835">0</title>
    <g
   id="g3">
	<circle
   id="circle5"
   r="50"
   cy="-160"
   cx="-895"
   d="m -845,-160 c 0,27.61424 -22.38576,50 -50,50 -27.61424,0 -50,-22.38576 -50,-50 0,-27.61424 22.38576,-50 50,-50 27.61424,0 50,22.38576 50,50 z"
   sodipodi:cx="-895"
   sodipodi:cy="-160"
   sodipodi:rx="50"
   sodipodi:ry="50"
   style="fill:#cac5c0" />
</g>
    <path
   id="path7"
   d="m -922,-157.572 c 0,-9.787 2.061,-18.813 6.191,-27.072 5.117,-10.236 12.123,-15.355 21.012,-15.355 8.797,0 15.666,4.359 20.605,13.064 4.127,7.186 6.191,15.537 6.191,25.051 0,9.881 -2.064,18.814 -6.191,26.803 -5.031,10.058 -12.035,15.081 -21.011,15.081 -8.531,0 -15.305,-4.307 -20.336,-12.926 -4.308,-7.361 -6.461,-15.576 -6.461,-24.646 z m 11.309,-4.444 c 0,12.926 1.93,22.984 5.795,30.168 2.691,5.025 6.146,7.541 10.367,7.541 10.146,0 15.221,-10.506 15.221,-31.518 0,-9.244 -0.809,-17.059 -2.422,-23.434 -2.785,-10.504 -7.498,-15.76 -14.145,-15.76 -9.879,0 -14.816,10.15 -14.816,30.443 v 2.56 z"
   inkscape:connector-curvature="0"
   style="fill:#0d0f0f" />
  </g>
</svg>