<?xml version="1.0" encoding="UTF-8" standalone="no"?>
<svg
   xmlns:dc="http://purl.org/dc/elements/1.1/"
   xmlns:cc="http://creativecommons.org/ns#"
   xmlns:rdf="http://www.w3.org/1999/02/22-rdf-syntax-ns#"
   xmlns:svg="http://www.w3.org/2000/svg"
   xmlns="http://www.w3.org/2000/svg"
   xmlns:sodipodi="http://sodipodi.sourceforge.net/DTD/sodipodi-0.dtd"
   xmlns:inkscape="http://www.inkscape.org/namespaces/inkscape"
   version="1.1"
   id="Layer_1"
   x="0px"
   y="0px"
   width="100"
   height="100"
   viewBox="-945 -210.002 100 99.999998"
   enable-background="new -945 -210.002 1045 730.002"
   xml:space="preserve"
   inkscape:version="0.48.3.1 r9886"
   sodipodi:docname="1-2.svg"><defs
   id="defs13" />
  <metadata
   id="metadata509">
    <rdf:RDF>
      <cc:Work
   rdf:about="">
        <dc:format>image/svg+xml</dc:format>
        <dc:type
   rdf:resource="http://purl.org/dc/dcmitype/StillImage" />
      </cc:Work>
    </rdf:RDF>
  </metadata>
  <sodipodi:namedview
   pagecolor="#ffffff"
   bordercolor="#666666"
   borderopacity="1"
   objecttolerance="10"
   gridtolerance="10"
   guidetolerance="10"
   inkscape:pageopacity="0"
   inkscape:pageshadow="2"
   inkscape:window-width="477"
   inkscape:window-height="417"
   id="namedview505"
   showgrid="false"
   showguides="true"
   inkscape:guide-bbox="true"
   inkscape:snap-bbox="false"
   inkscape:zoom="0.7984555"
   inkscape:cx="209.41773"
   inkscape:cy="143.90194"
   inkscape:window-x="2"
   inkscape:window-y="2"
   inkscape:window-maximized="0"
   inkscape:current-layer="Layer_1" />
  <g
   id="g3811"
   transform="translate(-315,-524.99999)">
    <title
   id="title3944">1-2</title>
    <g
   id="g357">
	<circle
   id="circle359"
   r="50"
   cy="364.99799"
   cx="-580"
   sodipodi:cx="-580"
   sodipodi:cy="364.99799"
   sodipodi:rx="50"
   sodipodi:ry="50"
   style="fill:#cac5c0"
   d="m -530,364.99799 c 0,27.61423 -22.38576,50 -50,50 -27.61424,0 -50,-22.38577 -50,-50 0,-27.61424 22.38576,-50 50,-50 27.61424,0 50,22.38576 50,50 z" />
</g>
    <path
   id="path361"
   d="m -577.693,321.25 v 27.246 c 0,3.26 1.371,4.889 4.117,4.889 h 0.715 v 1.865 h -14.496 v -1.865 h 0.91 c 2.656,0 3.98,-1.629 3.98,-4.889 v -17.873 c 0,-3.297 -1.145,-4.947 -3.434,-4.947 h -1.457 v -1.805 h 0.523 c 2.832,0 5.395,-0.875 7.688,-2.621 h 1.454 l 0,0 z"
   inkscape:connector-curvature="0"
   style="fill:#0d0f0f" />
    <path
   id="path363"
   d="m -568.447,395.504 -2.504,8.455 h -20.82 v -1.809 c 1.012,-1.127 3.227,-3.4 6.648,-6.822 2.063,-2.063 4.102,-4.238 6.121,-6.531 1.012,-1.129 1.789,-2.102 2.332,-2.918 1.207,-1.746 1.809,-3.535 1.809,-5.363 0,-1.789 -0.555,-3.363 -1.66,-4.723 -1.105,-1.363 -2.531,-2.045 -4.285,-2.045 -3.773,0 -6.727,2.551 -8.863,7.643 l -1.867,-0.701 c 2.527,-7.15 6.508,-10.729 11.953,-10.729 2.684,0 4.965,0.912 6.855,2.738 1.887,1.828 2.828,4.082 2.828,6.768 0,3.422 -1.965,6.766 -5.891,10.029 l -4.082,3.379 c -2.605,2.184 -4.766,4.225 -6.473,6.129 -0.117,0.113 -0.352,0.391 -0.699,0.814 h 10.848 c 1.668,0 2.934,-0.33 3.789,-0.992 0.734,-0.582 1.457,-1.689 2.156,-3.32 h 1.805 v -0.002 z"
   inkscape:connector-curvature="0"
   style="fill:#0d0f0f" />
    <g
   id="g365">
	<path
   id="path367"
   d="m -609.268,364.455 v -2.91 h 58.328 v 2.91 h -58.328 z"
   inkscape:connector-curvature="0"
   style="fill:#0d0f0f" />
</g>
  </g>
</svg>