<?xml version="1.0" encoding="UTF-8" standalone="no"?>
<svg
   xmlns:dc="http://purl.org/dc/elements/1.1/"
   xmlns:cc="http://creativecommons.org/ns#"
   xmlns:rdf="http://www.w3.org/1999/02/22-rdf-syntax-ns#"
   xmlns:svg="http://www.w3.org/2000/svg"
   xmlns="http://www.w3.org/2000/svg"
   xmlns:sodipodi="http://sodipodi.sourceforge.net/DTD/sodipodi-0.dtd"
   xmlns:inkscape="http://www.inkscape.org/namespaces/inkscape"
   version="1.1"
   id="Layer_1"
   x="0px"
   y="0px"
   width="100"
   height="100"
   viewBox="-945 -210.002 100 99.999998"
   enable-background="new -945 -210.002 1045 730.002"
   xml:space="preserve"
   inkscape:version="0.48.3.1 r9886"
   sodipodi:docname="12.svg"><defs
   id="defs10" />
  <metadata
   id="metadata509">
    <rdf:RDF>
      <cc:Work
   rdf:about="">
        <dc:format>image/svg+xml</dc:format>
        <dc:type
   rdf:resource="http://purl.org/dc/dcmitype/StillImage" />
      </cc:Work>
    </rdf:RDF>
  </metadata>
  <sodipodi:namedview
   pagecolor="#ffffff"
   bordercolor="#666666"
   borderopacity="1"
   objecttolerance="10"
   gridtolerance="10"
   guidetolerance="10"
   inkscape:pageopacity="0"
   inkscape:pageshadow="2"
   inkscape:window-width="477"
   inkscape:window-height="417"
   id="namedview505"
   showgrid="false"
   showguides="true"
   inkscape:guide-bbox="true"
   inkscape:snap-bbox="false"
   inkscape:zoom="0.7984555"
   inkscape:cx="314.41773"
   inkscape:cy="-276.09805"
   inkscape:window-x="2"
   inkscape:window-y="2"
   inkscape:window-maximized="0"
   inkscape:current-layer="Layer_1" />
  <g
   id="g3574"
   transform="translate(-210,-105.00001)">
    <title
   id="title3859">12</title>
    <g
   id="g105">
	<circle
   id="circle107"
   r="50"
   cy="-55.001999"
   cx="-685"
   sodipodi:cx="-685"
   sodipodi:cy="-55.001999"
   sodipodi:rx="50"
   sodipodi:ry="50"
   style="fill:#cac5c0"
   d="m -635,-55.001999 c 0,27.614238 -22.38576,50.0000001 -50,50.0000001 -27.61424,0 -50,-22.3857621 -50,-50.0000001 0,-27.614237 22.38576,-50.000001 50,-50.000001 27.61424,0 50,22.385764 50,50.000001 z" />
</g>
    <path
   style="fill:#0d0f0f"
   inkscape:connector-curvature="0"
   id="path109"
   d="m -699.37,-87.785 v 49.18 c 0,5.875 2.428,8.816 7.277,8.816 h 1.278 v 3.445 H -717 v -3.445 h 1.533 c 4.938,0 7.406,-2.941 7.406,-8.816 v -32.32 c 0,-5.955 -2.043,-8.939 -6.128,-8.939 h -2.682 v -3.322 h 1.019 c 5.109,0 9.709,-1.531 13.795,-4.598 l 2.687,-10e-4 0,0 z m 50.965,46.367 -4.471,15.203 h -37.429 v -3.32 c 1.793,-2.043 5.749,-6.133 11.882,-12.266 3.659,-3.66 7.324,-7.578 10.988,-11.748 1.788,-2.049 3.191,-3.748 4.215,-5.115 2.126,-3.232 3.191,-6.465 3.191,-9.703 0,-3.238 -0.981,-6.092 -2.938,-8.561 -1.959,-2.471 -4.559,-3.705 -7.791,-3.705 -6.731,0 -12.012,4.598 -15.843,13.799 l -3.321,-1.279 c 4.601,-12.775 11.752,-19.164 21.461,-19.164 4.767,0 8.857,1.621 12.262,4.855 3.404,3.238 5.109,7.281 5.109,12.137 0,6.215 -3.534,12.262 -10.598,18.141 l -7.282,5.873 c -4.688,3.92 -8.561,7.625 -11.628,11.111 -0.254,0.262 -0.681,0.729 -1.273,1.41 h 19.544 c 2.979,0 5.192,-0.557 6.643,-1.664 1.445,-1.102 2.766,-3.107 3.956,-6.004 h 3.323 z" />
  </g>
</svg>