<?xml version="1.0" encoding="UTF-8" standalone="no"?>
<svg
   xmlns:dc="http://purl.org/dc/elements/1.1/"
   xmlns:cc="http://creativecommons.org/ns#"
   xmlns:rdf="http://www.w3.org/1999/02/22-rdf-syntax-ns#"
   xmlns:svg="http://www.w3.org/2000/svg"
   xmlns="http://www.w3.org/2000/svg"
   xmlns:sodipodi="http://sodipodi.sourceforge.net/DTD/sodipodi-0.dtd"
   xmlns:inkscape="http://www.inkscape.org/namespaces/inkscape"
   version="1.1"
   id="Layer_1"
   x="0px"
   y="0px"
   width="100"
   height="100"
   viewBox="-945 -210.002 100 99.999998"
   enable-background="new -945 -210.002 1045 730.002"
   xml:space="preserve"
   inkscape:version="0.48.3.1 r9886"
   sodipodi:docname="14.svg"><defs
   id="defs10" />
  <metadata
   id="metadata509">
    <rdf:RDF>
      <cc:Work
   rdf:about="">
        <dc:format>image/svg+xml</dc:format>
        <dc:type
   rdf:resource="http://purl.org/dc/dcmitype/StillImage" />
      </cc:Work>
    </rdf:RDF>
  </metadata>
  <sodipodi:namedview
   pagecolor="#ffffff"
   bordercolor="#666666"
   borderopacity="1"
   objecttolerance="10"
   gridtolerance="10"
   guidetolerance="10"
   inkscape:pageopacity="0"
   inkscape:pageshadow="2"
   inkscape:window-width="477"
   inkscape:window-height="417"
   id="namedview505"
   showgrid="false"
   showguides="true"
   inkscape:guide-bbox="true"
   inkscape:snap-bbox="false"
   inkscape:zoom="0.7984555"
   inkscape:cx="104.41773"
   inkscape:cy="-276.09805"
   inkscape:window-x="2"
   inkscape:window-y="2"
   inkscape:window-maximized="0"
   inkscape:current-layer="Layer_1" />
  <g
   id="g3584"
   transform="translate(-420,-105.00001)">
    <title
   id="title3863">14</title>
    <g
   id="g93">
	<circle
   id="circle95"
   r="50"
   cy="-55.001999"
   cx="-475"
   sodipodi:cx="-475"
   sodipodi:cy="-55.001999"
   sodipodi:rx="50"
   sodipodi:ry="50"
   style="fill:#cac5c0"
   d="m -425,-55.001999 c 0,27.614238 -22.38576,50.0000001 -50,50.0000001 -27.61424,0 -50,-22.3857621 -50,-50.0000001 0,-27.614237 22.38576,-50.000001 50,-50.000001 27.61424,0 50,22.385764 50,50.000001 z" />
</g>
    <path
   style="fill:#0d0f0f"
   inkscape:connector-curvature="0"
   id="path97"
   d="m -488.692,-87.529 v 49.053 c 0,5.789 2.427,8.684 7.276,8.684 h 1.154 v 3.322 h -26.062 v -3.322 h 1.663 c 4.938,0 7.407,-2.895 7.407,-8.684 v -32.191 c 0,-5.879 -2.09,-8.816 -6.259,-8.816 h -2.557 v -3.32 h 1.023 c 5.021,0 9.579,-1.574 13.665,-4.725 l 2.69,-10e-4 0,0 z m 43.047,43.687 v 5.109 c 0,5.707 1.996,8.561 6.003,8.561 h 1.658 v 3.316 h -24.398 v -3.316 h 1.918 c 4.003,0 6.004,-2.813 6.004,-8.43 v -5.24 h -24.528 v -5.109 l 25.932,-37.814 h 7.412 v 38.578 h 0.639 c 2.47,0 4.299,-1.953 5.489,-5.873 h 3.066 l -1.533,10.219 -7.662,-10e-4 0,0 z m -6.773,-5.109 V -81.14 l -21.716,32.189 h 21.716 z" />
  </g>
</svg>