<?xml version="1.0" encoding="UTF-8" standalone="no"?>
<svg
   xmlns:dc="http://purl.org/dc/elements/1.1/"
   xmlns:cc="http://creativecommons.org/ns#"
   xmlns:rdf="http://www.w3.org/1999/02/22-rdf-syntax-ns#"
   xmlns:svg="http://www.w3.org/2000/svg"
   xmlns="http://www.w3.org/2000/svg"
   xmlns:sodipodi="http://sodipodi.sourceforge.net/DTD/sodipodi-0.dtd"
   xmlns:inkscape="http://www.inkscape.org/namespaces/inkscape"
   version="1.1"
   id="Layer_1"
   x="0px"
   y="0px"
   width="100"
   height="100"
   viewBox="-945 -210.002 100 99.999998"
   enable-background="new -945 -210.002 1045 730.002"
   xml:space="preserve"
   inkscape:version="0.48.3.1 r9886"
   sodipodi:docname="16.svg"><defs
   id="defs10" />
  <metadata
   id="metadata509">
    <rdf:RDF>
      <cc:Work
   rdf:about="">
        <dc:format>image/svg+xml</dc:format>
        <dc:type
   rdf:resource="http://purl.org/dc/dcmitype/StillImage" />
      </cc:Work>
    </rdf:RDF>
  </metadata>
  <sodipodi:namedview
   pagecolor="#ffffff"
   bordercolor="#666666"
   borderopacity="1"
   objecttolerance="10"
   gridtolerance="10"
   guidetolerance="10"
   inkscape:pageopacity="0"
   inkscape:pageshadow="2"
   inkscape:window-width="477"
   inkscape:window-height="417"
   id="namedview505"
   showgrid="false"
   showguides="true"
   inkscape:guide-bbox="true"
   inkscape:snap-bbox="false"
   inkscape:zoom="0.7984555"
   inkscape:cx="-105.58227"
   inkscape:cy="-276.09805"
   inkscape:window-x="2"
   inkscape:window-y="2"
   inkscape:window-maximized="0"
   inkscape:current-layer="Layer_1" />
  <g
   id="g3594"
   transform="translate(-630,-105.00001)">
    <title
   id="title3867">16</title>
    <g
   id="g81">
	<circle
   id="circle83"
   r="50"
   cy="-55.001999"
   cx="-265"
   sodipodi:cx="-265"
   sodipodi:cy="-55.001999"
   sodipodi:rx="50"
   sodipodi:ry="50"
   style="fill:#cac5c0"
   d="m -215,-55.001999 c 0,27.614238 -22.38576,50.0000001 -50,50.0000001 -27.61424,0 -50,-22.3857621 -50,-50.0000001 0,-27.614237 22.38576,-50.000001 50,-50.000001 27.61424,0 50,22.385764 50,50.000001 z" />
</g>
    <path
   style="fill:#0d0f0f"
   inkscape:connector-curvature="0"
   id="path85"
   d="m -280.691,-88.678 v 50.838 c 0,6.047 2.516,9.07 7.537,9.07 h 1.279 v 3.447 h -27.082 v -3.447 h 1.789 c 5.109,0 7.668,-3.023 7.668,-9.07 v -33.344 c 0,-6.127 -2.174,-9.193 -6.52,-9.193 h -2.682 v -3.451 h 1.023 c 5.281,0 10.049,-1.617 14.305,-4.85 h 2.683 z m 20.058,27.459 c 4.684,-4.422 9.408,-6.643 14.18,-6.643 5.109,0 9.236,2.049 12.391,6.135 2.895,3.746 4.34,8.305 4.34,13.668 0,5.791 -1.703,10.859 -5.109,15.199 -3.746,4.855 -8.43,7.281 -14.049,7.281 -6.643,0 -12.006,-2.895 -16.098,-8.684 -3.576,-5.109 -5.365,-11.156 -5.365,-18.141 0,-7.49 2.043,-14.371 6.135,-20.631 4.084,-6.258 9.58,-10.707 16.477,-13.348 3.83,-1.451 7.922,-2.174 12.262,-2.174 v 3.322 c -9.193,0.428 -16.051,4.092 -20.563,10.988 -2.304,3.579 -3.837,7.919 -4.601,13.028 z m -0.64,6.264 c -0.082,1.273 -0.129,2.553 -0.129,3.83 0,4.938 0.852,9.496 2.559,13.672 2.213,5.445 5.445,8.17 9.707,8.17 3.66,0 6.43,-1.871 8.301,-5.619 1.363,-2.895 2.043,-6.43 2.043,-10.604 0,-4.34 -0.633,-8.088 -1.912,-11.236 -1.877,-4.262 -4.729,-6.389 -8.561,-6.389 -4.684,0 -8.686,2.725 -12.008,8.176 z" />
  </g>
</svg>