<?xml version="1.0" encoding="UTF-8" standalone="no"?>
<svg
   xmlns:dc="http://purl.org/dc/elements/1.1/"
   xmlns:cc="http://creativecommons.org/ns#"
   xmlns:rdf="http://www.w3.org/1999/02/22-rdf-syntax-ns#"
   xmlns:svg="http://www.w3.org/2000/svg"
   xmlns="http://www.w3.org/2000/svg"
   xmlns:sodipodi="http://sodipodi.sourceforge.net/DTD/sodipodi-0.dtd"
   xmlns:inkscape="http://www.inkscape.org/namespaces/inkscape"
   version="1.1"
   id="Layer_1"
   x="0px"
   y="0px"
   width="100"
   height="100"
   viewBox="-945 -210.002 100 99.999998"
   enable-background="new -945 -210.002 1045 730.002"
   xml:space="preserve"
   inkscape:version="0.48.3.1 r9886"
   sodipodi:docname="2.svg"><defs
   id="defs10" />
  <metadata
   id="metadata509">
    <rdf:RDF>
      <cc:Work
   rdf:about="">
        <dc:format>image/svg+xml</dc:format>
        <dc:type
   rdf:resource="http://purl.org/dc/dcmitype/StillImage" />
      </cc:Work>
    </rdf:RDF>
  </metadata>
  <sodipodi:namedview
   pagecolor="#ffffff"
   bordercolor="#666666"
   borderopacity="1"
   objecttolerance="10"
   gridtolerance="10"
   guidetolerance="10"
   inkscape:pageopacity="0"
   inkscape:pageshadow="2"
   inkscape:window-width="477"
   inkscape:window-height="417"
   id="namedview505"
   showgrid="false"
   showguides="true"
   inkscape:guide-bbox="true"
   inkscape:snap-bbox="false"
   inkscape:zoom="0.7984555"
   inkscape:cx="314.41773"
   inkscape:cy="-381.09805"
   inkscape:window-x="2"
   inkscape:window-y="2"
   inkscape:window-maximized="0"
   inkscape:current-layer="Layer_1" />
  <g
   id="g3524"
   transform="translate(-210,-8.1787109e-6)">
    <title
   id="title3839">2</title>
    <g
   id="g15">
	<circle
   id="circle17"
   r="50"
   cy="-160.002"
   cx="-685"
   sodipodi:cx="-685"
   sodipodi:cy="-160.002"
   sodipodi:rx="50"
   sodipodi:ry="50"
   style="fill:#cac5c0"
   d="m -635,-160.002 c 0,27.61424 -22.38576,50 -50,50 -27.61424,0 -50,-22.38576 -50,-50 0,-27.61424 22.38576,-50 50,-50 27.61424,0 50,22.38576 50,50 z" />
</g>
    <path
   id="path19"
   d="m -657.558,-141.897 -5.896,19.898 h -48.991 v -4.254 c 2.38,-2.652 7.595,-8.001 15.646,-16.053 4.849,-4.852 9.649,-9.972 14.407,-15.371 2.378,-2.651 4.21,-4.942 5.487,-6.862 2.836,-4.114 4.255,-8.32 4.255,-12.624 0,-4.204 -1.301,-7.912 -3.908,-11.112 -2.607,-3.204 -5.97,-4.808 -10.09,-4.808 -8.871,0 -15.823,5.998 -20.854,17.98 l -4.395,-1.647 c 5.947,-16.829 15.321,-25.249 28.131,-25.249 6.313,0 11.687,2.149 16.124,6.448 4.439,4.3 6.656,9.604 6.656,15.92 0,8.052 -4.617,15.918 -13.858,23.601 l -9.604,7.956 c -6.131,5.127 -11.212,9.929 -15.231,14.412 -0.28,0.273 -0.826,0.916 -1.647,1.921 h 25.521 c 3.932,0 6.907,-0.776 8.918,-2.335 1.735,-1.372 3.434,-3.98 5.08,-7.821 h 4.249 z"
   inkscape:connector-curvature="0"
   style="fill:#0d0f0f" />
  </g>
</svg>