<?xml version="1.0" encoding="UTF-8" standalone="no"?>
<svg
   xmlns:dc="http://purl.org/dc/elements/1.1/"
   xmlns:cc="http://creativecommons.org/ns#"
   xmlns:rdf="http://www.w3.org/1999/02/22-rdf-syntax-ns#"
   xmlns:svg="http://www.w3.org/2000/svg"
   xmlns="http://www.w3.org/2000/svg"
   xmlns:sodipodi="http://sodipodi.sourceforge.net/DTD/sodipodi-0.dtd"
   xmlns:inkscape="http://www.inkscape.org/namespaces/inkscape"
   version="1.1"
   id="Layer_1"
   x="0px"
   y="0px"
   width="100"
   height="100"
   viewBox="-945 -210.002 100 99.999998"
   enable-background="new -945 -210.002 1045 730.002"
   xml:space="preserve"
   inkscape:version="0.48.3.1 r9886"
   sodipodi:docname="5.svg"><defs
   id="defs10" />
  <metadata
   id="metadata509">
    <rdf:RDF>
      <cc:Work
   rdf:about="">
        <dc:format>image/svg+xml</dc:format>
        <dc:type
   rdf:resource="http://purl.org/dc/dcmitype/StillImage" />
      </cc:Work>
    </rdf:RDF>
  </metadata>
  <sodipodi:namedview
   pagecolor="#ffffff"
   bordercolor="#666666"
   borderopacity="1"
   objecttolerance="10"
   gridtolerance="10"
   guidetolerance="10"
   inkscape:pageopacity="0"
   inkscape:pageshadow="2"
   inkscape:window-width="477"
   inkscape:window-height="417"
   id="namedview505"
   showgrid="false"
   showguides="true"
   inkscape:guide-bbox="true"
   inkscape:snap-bbox="false"
   inkscape:zoom="0.7984555"
   inkscape:cx="-0.58227"
   inkscape:cy="-381.09805"
   inkscape:window-x="2"
   inkscape:window-y="2"
   inkscape:window-maximized="0"
   inkscape:current-layer="Layer_1" />
  <g
   id="g3539"
   transform="translate(-525,-8.1787109e-6)">
    <title
   id="title3845">5</title>
    <g
   id="g33">
	<circle
   id="circle35"
   r="50"
   cy="-160.002"
   cx="-370"
   sodipodi:cx="-370"
   sodipodi:cy="-160.002"
   sodipodi:rx="50"
   sodipodi:ry="50"
   style="fill:#cac5c0"
   d="m -320,-160.002 c 0,27.61424 -22.38576,50 -50,50 -27.61424,0 -50,-22.38576 -50,-50 0,-27.61424 22.38576,-50 50,-50 27.61424,0 50,22.38576 50,50 z" />
</g>
    <path
   id="path37"
   d="m -385.043,-198.648 h 28.941 c 3.754,0 5.988,-0.45 6.703,-1.352 h 4.156 l -2.422,10.925 h -35.314 l -3.408,15.789 c 5.127,-2.07 9.668,-3.104 13.625,-3.104 7.729,0 14.25,2.587 19.559,7.758 5.305,5.171 7.961,11.622 7.961,19.357 0,8.996 -3.465,16.237 -10.394,21.722 -6.385,5.039 -14.162,7.553 -23.338,7.553 -5.395,0 -10.66,-0.808 -15.785,-2.426 l 1.617,-4.046 c 4.32,1.169 8.141,1.751 11.469,1.751 6.654,0 12.477,-2.18 17.473,-6.544 4.99,-4.358 7.488,-9.826 7.488,-16.392 0,-5.665 -1.844,-10.32 -5.533,-13.959 -3.689,-3.646 -8.365,-5.468 -14.033,-5.468 -5.213,0 -10.07,1.8 -14.568,5.396 l -2.701,-0.538 8.504,-36.422 z"
   inkscape:connector-curvature="0"
   style="fill:#0d0f0f" />
  </g>
</svg>