<?xml version="1.0" encoding="UTF-8" standalone="no"?>
<svg
   xmlns:dc="http://purl.org/dc/elements/1.1/"
   xmlns:cc="http://creativecommons.org/ns#"
   xmlns:rdf="http://www.w3.org/1999/02/22-rdf-syntax-ns#"
   xmlns:svg="http://www.w3.org/2000/svg"
   xmlns="http://www.w3.org/2000/svg"
   xmlns:sodipodi="http://sodipodi.sourceforge.net/DTD/sodipodi-0.dtd"
   xmlns:inkscape="http://www.inkscape.org/namespaces/inkscape"
   version="1.1"
   id="Layer_1"
   x="0px"
   y="0px"
   width="119.99966"
   height="100"
   viewBox="-945 -210.002 119.99966 99.999998"
   enable-background="new -945 -210.002 1045 730.002"
   xml:space="preserve"
   inkscape:version="0.48.3.1 r9886"
   sodipodi:docname="C.svg"><defs
   id="defs9" />
  <metadata
   id="metadata509">
    <rdf:RDF>
      <cc:Work
   rdf:about="">
        <dc:format>image/svg+xml</dc:format>
        <dc:type
   rdf:resource="http://purl.org/dc/dcmitype/StillImage" />
      </cc:Work>
    </rdf:RDF>
  </metadata>
  <sodipodi:namedview
   pagecolor="#ffffff"
   bordercolor="#666666"
   borderopacity="1"
   objecttolerance="10"
   gridtolerance="10"
   guidetolerance="10"
   inkscape:pageopacity="0"
   inkscape:pageshadow="2"
   inkscape:window-width="477"
   inkscape:window-height="417"
   id="namedview505"
   showgrid="false"
   showguides="true"
   inkscape:guide-bbox="true"
   inkscape:snap-bbox="false"
   inkscape:zoom="0.7984555"
   inkscape:cx="107.24632"
   inkscape:cy="141.0993"
   inkscape:window-x="2"
   inkscape:window-y="2"
   inkscape:window-maximized="0"
   inkscape:current-layer="Layer_1" />
  <g
   id="g3299"
   transform="translate(-417.17141,-522.19736)">
    <title
   id="title3303">C</title>
    <path
   id="path417"
   d="m -451.68728,312.19535 c -36.768,1.68 4.253,32.994 -16.484,49.5 0,0.002 -0.003,0.004 -0.005,0.004 -10e-4,-0.004 -0.004,-0.008 -0.007,-0.01 -0.102,0.041 -0.192,0.088 -0.293,0.129 -14.524,5.879 -30.695,-17.715 -31.166,7.076 7.67,-11.506 11.167,-0.273 23.775,-0.977 -6.123,8.09 -3.121,21.664 -13.33,23.873 -18.65,4.033 -32.297,-18.639 -31.16,-32.869 2.525,-31.602 27.29,-45.969 51.881,-44.488 -32.55,-6.518 -60.143,20.309 -59.335,48.137 0.928,31.91 17.857,47.527 43.841,49.625 36.768,-1.678 -4.253,-32.996 16.484,-49.5 0.002,-0.002 0.003,-0.004 0.005,-0.004 0.003,0.004 0.004,0.008 0.007,0.01 0.102,-0.041 0.192,-0.088 0.294,-0.129 14.523,-5.879 30.696,17.715 31.165,-7.076 -7.669,11.506 -11.167,0.273 -23.775,0.977 6.123,-8.09 3.123,-21.664 13.331,-23.871 18.651,-4.033 32.296,18.637 31.159,32.867 -2.523,31.604 -27.289,45.969 -51.88,44.488 32.55,6.518 60.143,-20.309 59.334,-48.139 -0.927,-31.908 -17.858,-47.523 -43.841,-49.623 z"
   inkscape:connector-curvature="0">
      <title
   id="title3628">C</title>
    </path>
  </g>
</svg>