<?xml version="1.0" encoding="UTF-8" standalone="no"?>
<svg
   xmlns:dc="http://purl.org/dc/elements/1.1/"
   xmlns:cc="http://creativecommons.org/ns#"
   xmlns:rdf="http://www.w3.org/1999/02/22-rdf-syntax-ns#"
   xmlns:svg="http://www.w3.org/2000/svg"
   xmlns="http://www.w3.org/2000/svg"
   xmlns:sodipodi="http://sodipodi.sourceforge.net/DTD/sodipodi-0.dtd"
   xmlns:inkscape="http://www.inkscape.org/namespaces/inkscape"
   version="1.1"
   id="Layer_1"
   x="0px"
   y="0px"
   width="100"
   height="100"
   viewBox="-945 -210.002 100 99.999998"
   enable-background="new -945 -210.002 1045 730.002"
   xml:space="preserve"
   inkscape:version="0.48.3.1 r9886"
   sodipodi:docname="T.svg"><defs
   id="defs10" />
  <metadata
   id="metadata509">
    <rdf:RDF>
      <cc:Work
   rdf:about="">
        <dc:format>image/svg+xml</dc:format>
        <dc:type
   rdf:resource="http://purl.org/dc/dcmitype/StillImage" />
      </cc:Work>
    </rdf:RDF>
  </metadata>
  <sodipodi:namedview
   pagecolor="#ffffff"
   bordercolor="#666666"
   borderopacity="1"
   objecttolerance="10"
   gridtolerance="10"
   guidetolerance="10"
   inkscape:pageopacity="0"
   inkscape:pageshadow="2"
   inkscape:window-width="477"
   inkscape:window-height="417"
   id="namedview505"
   showgrid="false"
   showguides="true"
   inkscape:guide-bbox="true"
   inkscape:snap-bbox="false"
   inkscape:zoom="0.7984555"
   inkscape:cx="524.41773"
   inkscape:cy="143.90194"
   inkscape:window-x="2"
   inkscape:window-y="2"
   inkscape:window-maximized="0"
   inkscape:current-layer="Layer_1" />
  <g
   id="g3830"
   transform="translate(0,-524.99999)">
    <title
   id="title3938">T</title>
    <g
   id="g337">
	<circle
   id="circle339"
   r="50"
   cy="364.99799"
   cx="-895"
   sodipodi:cx="-895"
   sodipodi:cy="364.99799"
   sodipodi:rx="50"
   sodipodi:ry="50"
   style="fill:#cac5c0"
   d="m -845,364.99799 c 0,27.61423 -22.38576,50 -50,50 -27.61424,0 -50,-22.38577 -50,-50 0,-27.61424 22.38576,-50 50,-50 27.61424,0 50,22.38576 50,50 z" />
</g>
    <path
   style="fill:#0d0f0f"
   inkscape:connector-curvature="0"
   id="path341"
   d="m -859.668,371.918 h -36.004 l 13.185,-9.383 c -4.898,-3.887 -10.566,-5.828 -16.984,-5.828 -3.211,0 -5.414,0.613 -6.59,1.836 -1.184,1.227 -1.777,3.445 -1.777,6.654 0,8.873 4.563,18.34 13.691,28.396 l -10.391,10.521 c -12.09,-14.705 -18.129,-27.844 -18.129,-39.424 0,-6.928 2.086,-12.447 6.27,-16.545 4.18,-4.098 9.746,-6.148 16.668,-6.148 8.453,0 17.664,3.215 27.641,9.635 l 7.728,-13.182 4.692,33.468 z" />
  </g>
</svg>