<?xml version="1.0" encoding="UTF-8" standalone="no"?>
<svg
   xmlns:dc="http://purl.org/dc/elements/1.1/"
   xmlns:cc="http://creativecommons.org/ns#"
   xmlns:rdf="http://www.w3.org/1999/02/22-rdf-syntax-ns#"
   xmlns:svg="http://www.w3.org/2000/svg"
   xmlns="http://www.w3.org/2000/svg"
   xmlns:sodipodi="http://sodipodi.sourceforge.net/DTD/sodipodi-0.dtd"
   xmlns:inkscape="http://www.inkscape.org/namespaces/inkscape"
   version="1.1"
   id="Layer_1"
   x="0px"
   y="0px"
   width="100"
   height="100"
   viewBox="-945 -210.002 100 99.999998"
   enable-background="new -945 -210.002 1045 730.002"
   xml:space="preserve"
   inkscape:version="0.48.3.1 r9886"
   sodipodi:docname="10.svg"><defs
   id="defs10" />
  <metadata
   id="metadata509">
    <rdf:RDF>
      <cc:Work
   rdf:about="">
        <dc:format>image/svg+xml</dc:format>
        <dc:type
   rdf:resource="http://purl.org/dc/dcmitype/StillImage" />
      </cc:Work>
    </rdf:RDF>
  </metadata>
  <sodipodi:namedview
   pagecolor="#ffffff"
   bordercolor="#666666"
   borderopacity="1"
   objecttolerance="10"
   gridtolerance="10"
   guidetolerance="10"
   inkscape:pageopacity="0"
   inkscape:pageshadow="2"
   inkscape:window-width="477"
   inkscape:window-height="417"
   id="namedview505"
   showgrid="false"
   showguides="true"
   inkscape:guide-bbox="true"
   inkscape:snap-bbox="false"
   inkscape:zoom="0.7984555"
   inkscape:cx="524.41773"
   inkscape:cy="-276.09805"
   inkscape:window-x="2"
   inkscape:window-y="2"
   inkscape:window-maximized="0"
   inkscape:current-layer="Layer_1" />
  <g
   id="g3564"
   transform="translate(0,-105.00001)">
    <title
   id="title3855">10</title>
    <g
   id="g117">
	<circle
   id="circle119"
   r="50"
   cy="-55.001999"
   cx="-895"
   sodipodi:cx="-895"
   sodipodi:cy="-55.001999"
   sodipodi:rx="50"
   sodipodi:ry="50"
   style="fill:#cac5c0"
   d="m -845,-55.001999 c 0,27.614238 -22.38576,50.0000001 -50,50.0000001 -27.61424,0 -50,-22.3857621 -50,-50.0000001 0,-27.614237 22.38576,-50.000001 50,-50.000001 27.61424,0 50,22.385764 50,50.000001 z" />
</g>
    <path
   id="path121"
   d="m -909.694,-86.367 v 50.439 c 0,5.998 2.567,8.998 7.693,8.998 h 1.305 v 3.42 h -26.866 v -3.42 h 1.727 c 4.931,0 7.4,-3 7.4,-8.998 v -33.08 c 0,-6.08 -2.155,-9.123 -6.467,-9.123 h -2.66 v -3.424 h 1.016 c 5.238,0 9.969,-1.604 14.191,-4.813 l 2.661,10e-4 0,0 z m 9.76,33.328 c 0,-7.857 1.646,-15.082 4.94,-21.668 4.142,-8.193 9.805,-12.293 16.982,-12.293 6.931,0 12.422,3.508 16.476,10.516 3.296,5.748 4.945,12.381 4.945,19.898 0,7.859 -1.648,15.039 -4.945,21.545 -4.141,8.029 -9.757,12.041 -16.853,12.041 -6.842,0 -12.293,-3.465 -16.352,-10.395 -3.464,-5.828 -5.193,-12.376 -5.193,-19.644 z m 9.122,-3.676 c 0,6.68 0.718,12.676 2.156,17.996 2.197,8.195 5.785,12.295 10.771,12.295 8.111,0 12.165,-8.447 12.165,-25.346 0,-20.869 -4.394,-31.301 -13.182,-31.301 -7.941,0 -11.912,8.105 -11.912,24.328 l 0.002,2.028 0,0 z"
   inkscape:connector-curvature="0"
   style="fill:#0d0f0f" />
  </g>
</svg>