<?xml version="1.0" encoding="UTF-8" standalone="no"?>
<svg
   xmlns:dc="http://purl.org/dc/elements/1.1/"
   xmlns:cc="http://creativecommons.org/ns#"
   xmlns:rdf="http://www.w3.org/1999/02/22-rdf-syntax-ns#"
   xmlns:svg="http://www.w3.org/2000/svg"
   xmlns="http://www.w3.org/2000/svg"
   xmlns:sodipodi="http://sodipodi.sourceforge.net/DTD/sodipodi-0.dtd"
   xmlns:inkscape="http://www.inkscape.org/namespaces/inkscape"
   version="1.1"
   id="Layer_1"
   x="0px"
   y="0px"
   width="100"
   height="100"
   viewBox="-945 -210.002 100 99.999998"
   enable-background="new -945 -210.002 1045 730.002"
   xml:space="preserve"
   inkscape:version="0.48.3.1 r9886"
   sodipodi:docname="11.svg"><defs
   id="defs10" />
  <metadata
   id="metadata509">
    <rdf:RDF>
      <cc:Work
   rdf:about="">
        <dc:format>image/svg+xml</dc:format>
        <dc:type
   rdf:resource="http://purl.org/dc/dcmitype/StillImage" />
      </cc:Work>
    </rdf:RDF>
  </metadata>
  <sodipodi:namedview
   pagecolor="#ffffff"
   bordercolor="#666666"
   borderopacity="1"
   objecttolerance="10"
   gridtolerance="10"
   guidetolerance="10"
   inkscape:pageopacity="0"
   inkscape:pageshadow="2"
   inkscape:window-width="477"
   inkscape:window-height="417"
   id="namedview505"
   showgrid="false"
   showguides="true"
   inkscape:guide-bbox="true"
   inkscape:snap-bbox="false"
   inkscape:zoom="0.7984555"
   inkscape:cx="419.41773"
   inkscape:cy="-276.09805"
   inkscape:window-x="2"
   inkscape:window-y="2"
   inkscape:window-maximized="0"
   inkscape:current-layer="Layer_1" />
  <g
   id="g3569"
   transform="translate(-105,-105.00001)">
    <title
   id="title3857">11</title>
    <g
   id="g111">
	<circle
   id="circle113"
   r="50"
   cy="-55.001999"
   cx="-790"
   sodipodi:cx="-790"
   sodipodi:cy="-55.001999"
   sodipodi:rx="50"
   sodipodi:ry="50"
   style="fill:#cac5c0"
   d="m -740,-55.001999 c 0,27.614238 -22.38576,50.0000001 -50,50.0000001 -27.61424,0 -50,-22.3857621 -50,-50.0000001 0,-27.614237 22.38576,-50.000001 50,-50.000001 27.61424,0 50,22.385764 50,50.000001 z" />
</g>
    <path
   style="fill:#0d0f0f"
   inkscape:connector-curvature="0"
   id="path115"
   d="m -800.169,-88.68 v 50.84 c 0,6.049 2.516,9.07 7.536,9.07 h 1.279 v 3.449 h -27.081 v -3.449 h 1.788 c 5.109,0 7.667,-3.021 7.667,-9.07 v -33.34 c 0,-6.133 -2.173,-9.195 -6.518,-9.195 h -2.683 v -3.449 h 1.024 c 5.28,0 10.047,-1.617 14.304,-4.855 l 2.684,-0.001 0,0 z m 32.449,0 v 50.84 c 0,6.049 2.511,9.07 7.537,9.07 h 1.278 v 3.449 h -27.086 v -3.449 h 1.788 c 5.115,0 7.667,-3.021 7.667,-9.07 v -33.34 c 0,-6.133 -2.173,-9.195 -6.513,-9.195 h -2.682 v -3.449 h 1.019 c 5.28,0 10.047,-1.617 14.31,-4.855 l 2.682,-0.001 0,0 z" />
  </g>
</svg>