<?xml version="1.0" encoding="UTF-8" standalone="no"?>
<svg
   xmlns:dc="http://purl.org/dc/elements/1.1/"
   xmlns:cc="http://creativecommons.org/ns#"
   xmlns:rdf="http://www.w3.org/1999/02/22-rdf-syntax-ns#"
   xmlns:svg="http://www.w3.org/2000/svg"
   xmlns="http://www.w3.org/2000/svg"
   xmlns:sodipodi="http://sodipodi.sourceforge.net/DTD/sodipodi-0.dtd"
   xmlns:inkscape="http://www.inkscape.org/namespaces/inkscape"
   version="1.1"
   id="Layer_1"
   x="0px"
   y="0px"
   width="100"
   height="100"
   viewBox="-945 -210.002 100 99.999998"
   enable-background="new -945 -210.002 1045 730.002"
   xml:space="preserve"
   inkscape:version="0.48.3.1 r9886"
   sodipodi:docname="15.svg"><defs
   id="defs10" />
  <metadata
   id="metadata509">
    <rdf:RDF>
      <cc:Work
   rdf:about="">
        <dc:format>image/svg+xml</dc:format>
        <dc:type
   rdf:resource="http://purl.org/dc/dcmitype/StillImage" />
      </cc:Work>
    </rdf:RDF>
  </metadata>
  <sodipodi:namedview
   pagecolor="#ffffff"
   bordercolor="#666666"
   borderopacity="1"
   objecttolerance="10"
   gridtolerance="10"
   guidetolerance="10"
   inkscape:pageopacity="0"
   inkscape:pageshadow="2"
   inkscape:window-width="477"
   inkscape:window-height="417"
   id="namedview505"
   showgrid="false"
   showguides="true"
   inkscape:guide-bbox="true"
   inkscape:snap-bbox="false"
   inkscape:zoom="0.7984555"
   inkscape:cx="-0.58227"
   inkscape:cy="-276.09605"
   inkscape:window-x="2"
   inkscape:window-y="2"
   inkscape:window-maximized="0"
   inkscape:current-layer="Layer_1" />
  <g
   id="g3589"
   transform="translate(-525,-105.00201)">
    <title
   id="title3865">15</title>
    <g
   id="g87">
	<path
   id="path89"
   d="M -320,-55.002 C -320,-27.387 -342.387,-5 -370.002,-5 -397.615,-5 -420,-27.387 -420,-55.002 c 0,-27.613 22.385,-49.998 49.998,-49.998 27.615,0 50.002,22.385 50.002,49.998 z"
   inkscape:connector-curvature="0"
   style="fill:#cac5c0" />
</g>
    <path
   style="fill:#0d0f0f"
   inkscape:connector-curvature="0"
   id="path91"
   d="m -385.33,-86.871 v 50.84 c 0,6.045 2.516,9.07 7.537,9.07 h 1.277 v 3.445 h -27.078 v -3.445 h 1.787 c 5.109,0 7.666,-3.025 7.666,-9.07 v -33.344 c 0,-6.129 -2.172,-9.195 -6.518,-9.195 h -2.682 v -3.449 h 1.023 c 5.281,0 10.047,-1.617 14.305,-4.852 h 2.683 z m 17.885,1.273 h 23.121 c 2.984,0 4.771,-0.336 5.369,-1.02 h 3.322 l -1.918,8.688 h -28.229 l -2.682,12.516 c 3.998,-1.617 7.578,-2.428 10.729,-2.428 6.133,0 11.305,2.049 15.52,6.135 4.215,4.084 6.32,9.193 6.32,15.328 0,7.152 -2.723,12.898 -8.17,17.246 -5.115,4 -11.291,6.004 -18.525,6.004 -4.258,0 -8.43,-0.641 -12.516,-1.918 l 1.273,-3.191 c 3.404,0.934 6.43,1.402 9.07,1.402 5.281,0 9.902,-1.742 13.861,-5.234 3.961,-3.492 5.936,-7.84 5.936,-13.031 0,-4.512 -1.465,-8.219 -4.402,-11.113 -2.941,-2.895 -6.621,-4.344 -11.051,-4.344 -4.172,0 -8.045,1.449 -11.625,4.344 l -2.168,-0.383 6.765,-29.001 z" />
  </g>
</svg>