<?xml version="1.0" encoding="UTF-8" standalone="no"?>
<svg
   xmlns:dc="http://purl.org/dc/elements/1.1/"
   xmlns:cc="http://creativecommons.org/ns#"
   xmlns:rdf="http://www.w3.org/1999/02/22-rdf-syntax-ns#"
   xmlns:svg="http://www.w3.org/2000/svg"
   xmlns="http://www.w3.org/2000/svg"
   xmlns:sodipodi="http://sodipodi.sourceforge.net/DTD/sodipodi-0.dtd"
   xmlns:inkscape="http://www.inkscape.org/namespaces/inkscape"
   version="1.1"
   id="Layer_1"
   x="0px"
   y="0px"
   width="100"
   height="100"
   viewBox="-945 -210.002 100 99.999998"
   enable-background="new -945 -210.002 1045 730.002"
   xml:space="preserve"
   inkscape:version="0.48.3.1 r9886"
   sodipodi:docname="18.svg"><defs
   id="defs10" />
  <metadata
   id="metadata509">
    <rdf:RDF>
      <cc:Work
   rdf:about="">
        <dc:format>image/svg+xml</dc:format>
        <dc:type
   rdf:resource="http://purl.org/dc/dcmitype/StillImage" />
      </cc:Work>
    </rdf:RDF>
  </metadata>
  <sodipodi:namedview
   pagecolor="#ffffff"
   bordercolor="#666666"
   borderopacity="1"
   objecttolerance="10"
   gridtolerance="10"
   guidetolerance="10"
   inkscape:pageopacity="0"
   inkscape:pageshadow="2"
   inkscape:window-width="477"
   inkscape:window-height="417"
   id="namedview505"
   showgrid="false"
   showguides="true"
   inkscape:guide-bbox="true"
   inkscape:snap-bbox="false"
   inkscape:zoom="0.7984555"
   inkscape:cx="-315.58227"
   inkscape:cy="-276.09805"
   inkscape:window-x="2"
   inkscape:window-y="2"
   inkscape:window-maximized="0"
   inkscape:current-layer="Layer_1" />
  <g
   id="g3604"
   transform="translate(-840,-105.00001)">
    <title
   id="title3871">18</title>
    <g
   id="g69">
	<circle
   id="circle71"
   r="50"
   cy="-55.001999"
   cx="-55"
   sodipodi:cx="-55"
   sodipodi:cy="-55.001999"
   sodipodi:rx="50"
   sodipodi:ry="50"
   style="fill:#cac5c0"
   d="m -5,-55.001999 c 0,27.614238 -22.385763,50.0000001 -50,50.0000001 -27.614237,0 -50,-22.3857621 -50,-50.0000001 0,-27.614237 22.385763,-50.000001 50,-50.000001 27.614237,0 50,22.385764 50,50.000001 z" />
</g>
    <path
   id="path73"
   d="m -69.025,-85.786 v 49.436 c 0,5.879 2.428,8.815 7.281,8.815 h 1.279 v 3.321 h -26.316 v -3.321 h 1.664 c 5.021,0 7.537,-2.937 7.537,-8.815 v -32.444 c 0,-5.962 -2.133,-8.939 -6.389,-8.939 h -2.557 v -3.322 h 1.023 c 5.109,0 9.709,-1.574 13.795,-4.729 h 2.683 v -0.002 z m 22.609,30.401 -1.277,-1.019 c -4.002,-2.724 -6.643,-4.896 -7.916,-6.513 -1.533,-2.131 -2.303,-4.6 -2.303,-7.412 0,-4.683 2,-8.514 6.002,-11.497 3.576,-2.807 7.84,-4.216 12.777,-4.216 4.6,0 8.686,1.195 12.262,3.576 3.918,2.729 5.879,6.347 5.879,10.858 0,5.452 -3.748,9.839 -11.244,13.16 8.604,4.174 12.902,10.006 12.902,17.501 0,5.364 -2.086,9.621 -6.26,12.771 -3.574,2.813 -8.133,4.215 -13.67,4.215 -5.279,0 -9.791,-1.32 -13.539,-3.961 -4.34,-2.978 -6.514,-6.938 -6.514,-11.876 0,-5.026 2.34,-9.112 7.027,-12.268 1.192,-0.844 3.151,-1.952 5.874,-3.319 z m 3.576,1.409 c -6.215,2.895 -9.324,7.406 -9.324,13.54 0,3.919 1.279,7.09 3.83,9.517 2.559,2.428 5.75,3.639 9.586,3.639 3.576,0 6.596,-0.956 9.07,-2.874 2.469,-1.913 3.701,-4.574 3.701,-7.984 0,-5.192 -3.322,-9.366 -9.965,-12.516 l -6.898,-3.322 z m 7.027,-6.133 c 5.537,-2.469 8.301,-6.128 8.301,-10.982 0,-3.321 -1.168,-6.004 -3.508,-8.052 -2.344,-2.043 -5.219,-3.062 -8.623,-3.062 -2.813,0 -5.322,0.806 -7.537,2.422 -2.219,1.622 -3.32,3.837 -3.32,6.644 0,3.409 1.574,6.133 4.725,8.176 0.68,0.426 3.492,1.788 8.43,4.091 l 1.532,0.763 z"
   inkscape:connector-curvature="0"
   style="fill:#0d0f0f" />
  </g>
</svg>