<?xml version="1.0" encoding="UTF-8" standalone="no"?>
<svg
   xmlns:dc="http://purl.org/dc/elements/1.1/"
   xmlns:cc="http://creativecommons.org/ns#"
   xmlns:rdf="http://www.w3.org/1999/02/22-rdf-syntax-ns#"
   xmlns:svg="http://www.w3.org/2000/svg"
   xmlns="http://www.w3.org/2000/svg"
   xmlns:sodipodi="http://sodipodi.sourceforge.net/DTD/sodipodi-0.dtd"
   xmlns:inkscape="http://www.inkscape.org/namespaces/inkscape"
   version="1.1"
   id="Layer_1"
   x="0px"
   y="0px"
   width="100"
   height="100"
   viewBox="-945 -210.002 100 99.999998"
   enable-background="new -945 -210.002 1045 730.002"
   xml:space="preserve"
   inkscape:version="0.48.3.1 r9886"
   sodipodi:docname="3.svg"><defs
   id="defs10" />
  <metadata
   id="metadata509">
    <rdf:RDF>
      <cc:Work
   rdf:about="">
        <dc:format>image/svg+xml</dc:format>
        <dc:type
   rdf:resource="http://purl.org/dc/dcmitype/StillImage" />
      </cc:Work>
    </rdf:RDF>
  </metadata>
  <sodipodi:namedview
   pagecolor="#ffffff"
   bordercolor="#666666"
   borderopacity="1"
   objecttolerance="10"
   gridtolerance="10"
   guidetolerance="10"
   inkscape:pageopacity="0"
   inkscape:pageshadow="2"
   inkscape:window-width="477"
   inkscape:window-height="417"
   id="namedview505"
   showgrid="false"
   showguides="true"
   inkscape:guide-bbox="true"
   inkscape:snap-bbox="false"
   inkscape:zoom="0.7984555"
   inkscape:cx="209.41773"
   inkscape:cy="-381.09805"
   inkscape:window-x="2"
   inkscape:window-y="2"
   inkscape:window-maximized="0"
   inkscape:current-layer="Layer_1" />
  <g
   id="g3529"
   transform="translate(-315,-8.1787109e-6)">
    <title
   id="title3841">3</title>
    <g
   id="g21">
	<circle
   id="circle23"
   r="50"
   cy="-160.002"
   cx="-580"
   sodipodi:cx="-580"
   sodipodi:cy="-160.002"
   sodipodi:rx="50"
   sodipodi:ry="50"
   style="fill:#cac5c0"
   d="m -530,-160.002 c 0,27.61424 -22.38576,50 -50,50 -27.61424,0 -50,-22.38576 -50,-50 0,-27.61424 22.38576,-50 50,-50 27.61424,0 50,22.38576 50,50 z" />
</g>
    <path
   id="path25"
   d="m -590.439,-157.438 -2.018,-3.771 1.337,-0.807 c 5.174,-3.145 9.903,-6.33 14.189,-9.563 4.284,-3.232 6.427,-6.915 6.427,-11.048 0,-2.778 -1.029,-5.112 -3.085,-6.998 -2.061,-1.892 -4.472,-2.834 -7.244,-2.834 -6.439,0 -13.234,4.001 -20.392,11.991 l -3.354,-2.559 c 7.453,-11.316 16.566,-16.974 27.341,-16.974 4.757,0 8.795,1.168 12.122,3.503 3.771,2.607 5.655,6.153 5.655,10.642 0,3.229 -1.349,6.374 -4.039,9.426 -1.528,1.798 -4.226,4.132 -8.083,7.004 l -1.616,1.213 c 0.718,-0.089 1.572,-0.134 2.56,-0.134 4.937,0 8.998,1.887 12.188,5.657 3.188,3.771 4.783,8.17 4.783,13.196 0,8.532 -3.595,15.667 -10.774,21.416 -6.647,5.387 -14.325,8.077 -23.032,8.077 -7.991,0 -14.276,-1.748 -18.858,-5.249 l 2.429,-3.371 c 5.387,2.608 10.279,3.907 14.681,3.907 6.373,0 12.051,-2.109 17.032,-6.33 4.988,-4.22 7.475,-9.469 7.475,-15.755 0,-4.132 -1.255,-7.655 -3.77,-10.576 -2.516,-2.915 -5.793,-4.374 -9.832,-4.374 -3.684,0.002 -7.723,1.437 -12.122,4.311 z"
   inkscape:connector-curvature="0"
   style="fill:#0d0f0f" />
  </g>
</svg>