<?xml version="1.0" encoding="UTF-8" standalone="no"?>
<svg
   xmlns:dc="http://purl.org/dc/elements/1.1/"
   xmlns:cc="http://creativecommons.org/ns#"
   xmlns:rdf="http://www.w3.org/1999/02/22-rdf-syntax-ns#"
   xmlns:svg="http://www.w3.org/2000/svg"
   xmlns="http://www.w3.org/2000/svg"
   xmlns:sodipodi="http://sodipodi.sourceforge.net/DTD/sodipodi-0.dtd"
   xmlns:inkscape="http://www.inkscape.org/namespaces/inkscape"
   version="1.1"
   id="Layer_1"
   x="0px"
   y="0px"
   width="100"
   height="100"
   viewBox="-945 -210.002 100 99.999998"
   enable-background="new -945 -210.002 1045 730.002"
   xml:space="preserve"
   inkscape:version="0.48.3.1 r9886"
   sodipodi:docname="6.svg"><defs
   id="defs10" />
  <metadata
   id="metadata509">
    <rdf:RDF>
      <cc:Work
   rdf:about="">
        <dc:format>image/svg+xml</dc:format>
        <dc:type
   rdf:resource="http://purl.org/dc/dcmitype/StillImage" />
      </cc:Work>
    </rdf:RDF>
  </metadata>
  <sodipodi:namedview
   pagecolor="#ffffff"
   bordercolor="#666666"
   borderopacity="1"
   objecttolerance="10"
   gridtolerance="10"
   guidetolerance="10"
   inkscape:pageopacity="0"
   inkscape:pageshadow="2"
   inkscape:window-width="477"
   inkscape:window-height="417"
   id="namedview505"
   showgrid="false"
   showguides="true"
   inkscape:guide-bbox="true"
   inkscape:snap-bbox="false"
   inkscape:zoom="0.7984555"
   inkscape:cx="-105.58227"
   inkscape:cy="-381.09805"
   inkscape:window-x="2"
   inkscape:window-y="2"
   inkscape:window-maximized="0"
   inkscape:current-layer="Layer_1" />
  <g
   id="g3544"
   transform="translate(-630,-8.1787109e-6)">
    <title
   id="title3847">6</title>
    <g
   id="g39">
	<circle
   id="circle41"
   r="50"
   cy="-160.002"
   cx="-265"
   sodipodi:cx="-265"
   sodipodi:cy="-160.002"
   sodipodi:rx="50"
   sodipodi:ry="50"
   style="fill:#cac5c0"
   d="m -215,-160.002 c 0,27.61424 -22.38576,50 -50,50 -27.61424,0 -50,-22.38576 -50,-50 0,-27.61424 22.38576,-50 50,-50 27.61424,0 50,22.38576 50,50 z" />
</g>
    <path
   id="path43"
   d="m -278.42,-165.325 c 5.934,-5.577 11.91,-8.364 17.939,-8.364 6.564,0 11.828,2.606 15.787,7.821 3.682,4.77 5.529,10.521 5.529,17.27 0,7.376 -2.158,13.849 -6.475,19.425 -4.768,6.114 -10.703,9.174 -17.807,9.174 -8.547,0 -15.381,-3.69 -20.504,-11.063 -4.59,-6.477 -6.883,-14.167 -6.883,-23.071 0,-9.44 2.607,-18.141 7.824,-26.101 5.213,-7.958 12.184,-13.602 20.906,-16.928 4.947,-1.888 10.168,-2.839 15.65,-2.839 v 4.184 c -11.691,0.631 -20.414,5.308 -26.174,14.031 -2.958,4.501 -4.895,9.983 -5.792,16.461 z m -0.812,8.092 c -0.086,1.618 -0.133,3.238 -0.133,4.857 0,6.203 1.078,11.96 3.236,17.269 2.785,6.922 6.883,10.385 12.279,10.385 4.674,0 8.18,-2.381 10.52,-7.151 1.797,-3.684 2.697,-8.135 2.697,-13.355 0,-5.571 -0.857,-10.342 -2.563,-14.299 -2.34,-5.396 -5.936,-8.092 -10.793,-8.092 -5.933,-0.001 -11.017,3.464 -15.243,10.386 z"
   inkscape:connector-curvature="0"
   style="fill:#0d0f0f" />
  </g>
</svg>