<?xml version="1.0" encoding="UTF-8" standalone="no"?>
<svg
   xmlns:dc="http://purl.org/dc/elements/1.1/"
   xmlns:cc="http://creativecommons.org/ns#"
   xmlns:rdf="http://www.w3.org/1999/02/22-rdf-syntax-ns#"
   xmlns:svg="http://www.w3.org/2000/svg"
   xmlns="http://www.w3.org/2000/svg"
   xmlns:sodipodi="http://sodipodi.sourceforge.net/DTD/sodipodi-0.dtd"
   xmlns:inkscape="http://www.inkscape.org/namespaces/inkscape"
   version="1.1"
   id="Layer_1"
   x="0px"
   y="0px"
   width="100"
   height="100"
   viewBox="-945 -210.002 100 99.999998"
   enable-background="new -945 -210.002 1045 730.002"
   xml:space="preserve"
   inkscape:version="0.48.3.1 r9886"
   sodipodi:docname="7.svg"><defs
   id="defs10" />
  <metadata
   id="metadata509">
    <rdf:RDF>
      <cc:Work
   rdf:about="">
        <dc:format>image/svg+xml</dc:format>
        <dc:type
   rdf:resource="http://purl.org/dc/dcmitype/StillImage" />
      </cc:Work>
    </rdf:RDF>
  </metadata>
  <sodipodi:namedview
   pagecolor="#ffffff"
   bordercolor="#666666"
   borderopacity="1"
   objecttolerance="10"
   gridtolerance="10"
   guidetolerance="10"
   inkscape:pageopacity="0"
   inkscape:pageshadow="2"
   inkscape:window-width="477"
   inkscape:window-height="417"
   id="namedview505"
   showgrid="false"
   showguides="true"
   inkscape:guide-bbox="true"
   inkscape:snap-bbox="false"
   inkscape:zoom="0.7984555"
   inkscape:cx="-210.58227"
   inkscape:cy="-381.09805"
   inkscape:window-x="2"
   inkscape:window-y="2"
   inkscape:window-maximized="0"
   inkscape:current-layer="Layer_1" />
  <g
   id="g3549"
   transform="translate(-735,-8.1787109e-6)">
    <title
   id="title3849">7</title>
    <g
   id="g45">
	<circle
   id="circle47"
   r="50"
   cy="-160.002"
   cx="-160"
   sodipodi:cx="-160"
   sodipodi:cy="-160.002"
   sodipodi:rx="50"
   sodipodi:ry="50"
   style="fill:#cac5c0"
   d="m -110,-160.002 c 0,27.61424 -22.38576,50 -50,50 -27.61424,0 -50,-22.38576 -50,-50 0,-27.61424 22.38576,-50 50,-50 27.61424,0 50,22.38576 50,50 z" />
</g>
    <path
   id="path49"
   d="m -156.506,-120 h -11.643 v -1.238 c 0,-7.396 2.328,-16.659 6.98,-27.808 7.035,-16.799 13.52,-29.673 19.453,-38.624 l 0.822,-1.232 h -27.256 c -3.93,0 -6.92,0.819 -8.975,2.463 -2.059,1.645 -3.582,4.387 -4.586,8.222 h -4.52 l 4.926,-21.782 h 2.881 c 1.734,0.914 4.742,1.371 9.041,1.371 h 35.609 v 6.165 c -1.275,1.829 -2.918,4.75 -4.926,8.768 -3.838,7.485 -7.352,16.208 -10.553,26.163 -4.743,14.702 -7.163,27.209 -7.253,37.532 z"
   inkscape:connector-curvature="0"
   style="fill:#0d0f0f" />
  </g>
</svg>