<?xml version="1.0" encoding="UTF-8" standalone="no"?>
<svg
   xmlns:dc="http://purl.org/dc/elements/1.1/"
   xmlns:cc="http://creativecommons.org/ns#"
   xmlns:rdf="http://www.w3.org/1999/02/22-rdf-syntax-ns#"
   xmlns:svg="http://www.w3.org/2000/svg"
   xmlns="http://www.w3.org/2000/svg"
   xmlns:sodipodi="http://sodipodi.sourceforge.net/DTD/sodipodi-0.dtd"
   xmlns:inkscape="http://www.inkscape.org/namespaces/inkscape"
   version="1.1"
   id="Layer_1"
   x="0px"
   y="0px"
   width="100"
   height="100"
   viewBox="-945 -210.002 100 99.999998"
   enable-background="new -945 -210.002 1045 730.002"
   xml:space="preserve"
   inkscape:version="0.48.3.1 r9886"
   sodipodi:docname="8.svg"><defs
   id="defs10" />
  <metadata
   id="metadata509">
    <rdf:RDF>
      <cc:Work
   rdf:about="">
        <dc:format>image/svg+xml</dc:format>
        <dc:type
   rdf:resource="http://purl.org/dc/dcmitype/StillImage" />
      </cc:Work>
    </rdf:RDF>
  </metadata>
  <sodipodi:namedview
   pagecolor="#ffffff"
   bordercolor="#666666"
   borderopacity="1"
   objecttolerance="10"
   gridtolerance="10"
   guidetolerance="10"
   inkscape:pageopacity="0"
   inkscape:pageshadow="2"
   inkscape:window-width="477"
   inkscape:window-height="417"
   id="namedview505"
   showgrid="false"
   showguides="true"
   inkscape:guide-bbox="true"
   inkscape:snap-bbox="false"
   inkscape:zoom="0.7984555"
   inkscape:cx="-315.58227"
   inkscape:cy="-381.09805"
   inkscape:window-x="2"
   inkscape:window-y="2"
   inkscape:window-maximized="0"
   inkscape:current-layer="Layer_1" />
  <g
   id="g3554"
   transform="translate(-840,-8.1787109e-6)">
    <title
   id="title3851">8</title>
    <g
   id="g51">
	<circle
   id="circle53"
   r="50"
   cy="-160.002"
   cx="-55"
   sodipodi:cx="-55"
   sodipodi:cy="-160.002"
   sodipodi:rx="50"
   sodipodi:ry="50"
   style="fill:#cac5c0"
   d="m -5,-160.002 c 0,27.61424 -22.385763,50 -50,50 -27.614237,0 -50,-22.38576 -50,-50 0,-27.61424 22.385763,-50 50,-50 27.614237,0 50,22.38576 50,50 z" />
</g>
    <path
   id="path55"
   d="m -64.035,-160.537 -1.746,-1.211 c -5.119,-3.502 -8.492,-6.33 -10.107,-8.489 -2.066,-2.691 -3.096,-5.83 -3.096,-9.426 0,-6.105 2.557,-11.087 7.678,-14.949 4.758,-3.59 10.281,-5.388 16.568,-5.388 5.922,0 11.18,1.573 15.756,4.713 5.203,3.503 7.813,8.127 7.813,13.876 0,7.004 -4.898,12.66 -14.682,16.967 11.131,5.388 16.699,12.884 16.699,22.492 0,6.914 -2.646,12.389 -7.949,16.434 -4.753,3.682 -10.729,5.518 -17.909,5.518 -6.734,0 -12.525,-1.703 -17.377,-5.119 -5.568,-3.856 -8.348,-8.976 -8.348,-15.349 0,-6.373 2.963,-11.63 8.889,-15.761 1.616,-1.074 4.223,-2.51 7.811,-4.308 z m 4.572,1.912 c -8.08,3.677 -12.111,9.466 -12.111,17.361 0,5.113 1.635,9.218 4.916,12.314 3.277,3.097 7.475,4.643 12.594,4.643 4.574,0 8.461,-1.232 11.646,-3.695 3.186,-2.464 4.781,-5.891 4.781,-10.28 0,-6.626 -4.367,-12.001 -13.098,-16.122 l -8.728,-4.221 z m 9.031,-7.973 c 7.088,-3.141 10.641,-7.854 10.641,-14.139 0,-4.313 -1.506,-7.766 -4.51,-10.375 -3.012,-2.603 -6.715,-3.906 -11.113,-3.906 -3.684,0 -6.869,0.991 -9.563,2.964 -2.965,2.154 -4.443,5.03 -4.443,8.62 0,4.4 2.063,7.948 6.195,10.643 0.805,0.537 4.396,2.286 10.775,5.25 l 2.018,0.943 z"
   inkscape:connector-curvature="0"
   style="fill:#0d0f0f" />
  </g>
</svg>