<?xml version="1.0" encoding="UTF-8" standalone="no"?>
<svg
   xmlns:dc="http://purl.org/dc/elements/1.1/"
   xmlns:cc="http://creativecommons.org/ns#"
   xmlns:rdf="http://www.w3.org/1999/02/22-rdf-syntax-ns#"
   xmlns:svg="http://www.w3.org/2000/svg"
   xmlns="http://www.w3.org/2000/svg"
   xmlns:sodipodi="http://sodipodi.sourceforge.net/DTD/sodipodi-0.dtd"
   xmlns:inkscape="http://www.inkscape.org/namespaces/inkscape"
   version="1.1"
   id="Layer_1"
   x="0px"
   y="0px"
   width="100"
   height="100"
   viewBox="-945 -210.002 100 99.999998"
   enable-background="new -945 -210.002 1045 730.002"
   xml:space="preserve"
   inkscape:version="0.48.3.1 r9886"
   sodipodi:docname="inf.svg"><defs
   id="defs11" />
  <metadata
   id="metadata509">
    <rdf:RDF>
      <cc:Work
   rdf:about="">
        <dc:format>image/svg+xml</dc:format>
        <dc:type
   rdf:resource="http://purl.org/dc/dcmitype/StillImage" />
      </cc:Work>
    </rdf:RDF>
  </metadata>
  <sodipodi:namedview
   pagecolor="#ffffff"
   bordercolor="#666666"
   borderopacity="1"
   objecttolerance="10"
   gridtolerance="10"
   guidetolerance="10"
   inkscape:pageopacity="0"
   inkscape:pageshadow="2"
   inkscape:window-width="477"
   inkscape:window-height="417"
   id="namedview505"
   showgrid="false"
   showguides="true"
   inkscape:guide-bbox="true"
   inkscape:snap-bbox="false"
   inkscape:zoom="0.7984555"
   inkscape:cx="314.41773"
   inkscape:cy="143.90194"
   inkscape:window-x="2"
   inkscape:window-y="2"
   inkscape:window-maximized="0"
   inkscape:current-layer="Layer_1" />
  <g
   id="g3819"
   transform="translate(-210,-524.99999)">
    <title
   id="title3942">inf</title>
    <g
   id="g349">
	<circle
   id="circle351"
   r="50"
   cy="364.99799"
   cx="-685"
   sodipodi:cx="-685"
   sodipodi:cy="364.99799"
   sodipodi:rx="50"
   sodipodi:ry="50"
   style="fill:#cac5c0"
   d="m -635,364.99799 c 0,27.61423 -22.38576,50 -50,50 -27.61424,0 -50,-22.38577 -50,-50 0,-27.61424 22.38576,-50 50,-50 27.61424,0 50,22.38576 50,50 z" />
</g>
    <g
   id="g353">
	<path
   id="path355"
   d="m -685.064,360.258 c 7.189,-10.043 15.201,-15.068 24.029,-15.068 5.887,0 10.594,1.803 14.092,5.393 3.508,3.594 5.264,8.334 5.264,14.225 0,5.895 -1.756,10.697 -5.264,14.42 -3.498,3.725 -8.164,5.586 -13.965,5.586 -8.658,0 -16.715,-5.021 -24.156,-15.068 -7.621,10.047 -15.592,15.068 -23.902,15.068 -5.889,0 -10.592,-1.838 -14.092,-5.518 -3.51,-3.686 -5.264,-8.471 -5.264,-14.355 0,-5.891 1.754,-10.652 5.264,-14.289 3.5,-3.635 8.203,-5.459 14.092,-5.459 8.489,-0.004 16.45,5.022 23.902,15.065 z m -3.764,4.812 c -6.756,-9.266 -13.563,-13.902 -20.402,-13.902 -4.07,0 -7.316,1.279 -9.738,3.832 -2.43,2.553 -3.635,5.867 -3.635,9.938 0,4.068 1.205,7.426 3.635,10.068 2.422,2.643 5.668,3.959 9.738,3.959 6.501,0 13.298,-4.631 20.402,-13.895 z m 7.4,0 c 7.021,9.264 13.9,13.895 20.658,13.895 3.973,0 7.164,-1.273 9.543,-3.832 2.379,-2.553 3.574,-5.867 3.574,-9.938 0,-4.238 -1.195,-7.643 -3.574,-10.195 -2.379,-2.552 -5.654,-3.832 -9.809,-3.832 -4.156,0 -8.057,1.475 -11.691,4.418 -2.252,1.818 -5.148,4.98 -8.701,9.484 z"
   inkscape:connector-curvature="0"
   style="fill:#0d0f0f" />
</g>
  </g>
</svg>