<?xml version="1.0" encoding="UTF-8" standalone="no"?>
<svg
   xmlns:dc="http://purl.org/dc/elements/1.1/"
   xmlns:cc="http://creativecommons.org/ns#"
   xmlns:rdf="http://www.w3.org/1999/02/22-rdf-syntax-ns#"
   xmlns:svg="http://www.w3.org/2000/svg"
   xmlns="http://www.w3.org/2000/svg"
   xmlns:sodipodi="http://sodipodi.sourceforge.net/DTD/sodipodi-0.dtd"
   xmlns:inkscape="http://www.inkscape.org/namespaces/inkscape"
   version="1.1"
   id="Layer_1"
   x="0px"
   y="0px"
   width="100"
   height="100"
   viewBox="-945 -210.002 100 99.999998"
   enable-background="new -945 -210.002 1045 730.002"
   xml:space="preserve"
   inkscape:version="0.48.3.1 r9886"
   sodipodi:docname="X.svg"><defs
   id="defs11" />
  <metadata
   id="metadata509">
    <rdf:RDF>
      <cc:Work
   rdf:about="">
        <dc:format>image/svg+xml</dc:format>
        <dc:type
   rdf:resource="http://purl.org/dc/dcmitype/StillImage" />
      </cc:Work>
    </rdf:RDF>
  </metadata>
  <sodipodi:namedview
   pagecolor="#ffffff"
   bordercolor="#666666"
   borderopacity="1"
   objecttolerance="10"
   gridtolerance="10"
   guidetolerance="10"
   inkscape:pageopacity="0"
   inkscape:pageshadow="2"
   inkscape:window-width="477"
   inkscape:window-height="417"
   id="namedview505"
   showgrid="false"
   showguides="true"
   inkscape:guide-bbox="true"
   inkscape:snap-bbox="false"
   inkscape:zoom="0.7984555"
   inkscape:cx="419.41773"
   inkscape:cy="-171.09605"
   inkscape:window-x="2"
   inkscape:window-y="2"
   inkscape:window-maximized="0"
   inkscape:current-layer="Layer_1" />
  <g
   id="g3624"
   transform="translate(-105,-210.00201)">
    <title
   id="title3877">X</title>
    <g
   id="g159">
	<path
   id="path161"
   d="M -740,49.998 C -740,77.613 -762.383,100 -790,100 -817.613,100 -840,77.613 -840,49.998 -840,22.385 -817.613,0 -790,0 c 27.617,0 50,22.385 50,49.998 z"
   inkscape:connector-curvature="0"
   style="fill:#cac5c0" />
</g>
    <g
   id="g163">
	<path
   id="path165"
   d="m -783.359,80 v -3.297 c 4.703,-0.521 7.059,-1.887 7.059,-4.082 0,-1.582 -0.629,-3.164 -1.883,-4.746 l -13.008,-16.01 -10.273,12.111 c -2.57,2.973 -3.863,5.432 -3.863,7.354 0,2.976 2.354,4.771 7.07,5.387 V 80 h -25.051 v -3.287 c 3.172,-0.609 5.867,-1.752 8.102,-3.416 1.539,-1.223 3.637,-3.371 6.285,-6.438 l 15.449,-17.915 -17.867,-21.66 c -2.315,-2.797 -4.121,-4.633 -5.401,-5.51 -1.724,-1.225 -4.121,-2.012 -7.203,-2.361 V 16 h 29.539 v 3.285 c -4.453,0.877 -6.676,2.234 -6.676,4.074 0,1.23 0.594,2.586 1.793,4.072 l 11.816,14.322 9.508,-11.691 c 1.711,-2.104 2.57,-3.941 2.57,-5.52 0,-2.629 -2.105,-4.34 -6.301,-5.129 V 16 h 23.512 v 3.291 c -2.055,0.439 -3.473,0.834 -4.23,1.188 -2.57,1.229 -6.496,4.869 -11.797,10.92 -0.852,0.969 -4.453,5.393 -10.789,13.285 l 18.977,23.363 c 4.113,5.078 8.305,7.971 12.586,8.666 V 80 h -29.924 z"
   inkscape:connector-curvature="0"
   style="fill:#0d0f0f" />
</g>
  </g>
</svg>