<?xml version="1.0" encoding="UTF-8" standalone="no"?>
<svg
   xmlns:dc="http://purl.org/dc/elements/1.1/"
   xmlns:cc="http://creativecommons.org/ns#"
   xmlns:rdf="http://www.w3.org/1999/02/22-rdf-syntax-ns#"
   xmlns:svg="http://www.w3.org/2000/svg"
   xmlns="http://www.w3.org/2000/svg"
   xmlns:sodipodi="http://sodipodi.sourceforge.net/DTD/sodipodi-0.dtd"
   xmlns:inkscape="http://www.inkscape.org/namespaces/inkscape"
   version="1.1"
   id="Layer_1"
   x="0px"
   y="0px"
   width="100"
   height="100"
   viewBox="-945 -210.002 100 99.999998"
   enable-background="new -945 -210.002 1045 730.002"
   xml:space="preserve"
   inkscape:version="0.48.3.1 r9886"
   sodipodi:docname="Z.svg"><defs
   id="defs12" />
  <metadata
   id="metadata509">
    <rdf:RDF>
      <cc:Work
   rdf:about="">
        <dc:format>image/svg+xml</dc:format>
        <dc:type
   rdf:resource="http://purl.org/dc/dcmitype/StillImage" />
      </cc:Work>
    </rdf:RDF>
  </metadata>
  <sodipodi:namedview
   pagecolor="#ffffff"
   bordercolor="#666666"
   borderopacity="1"
   objecttolerance="10"
   gridtolerance="10"
   guidetolerance="10"
   inkscape:pageopacity="0"
   inkscape:pageshadow="2"
   inkscape:window-width="477"
   inkscape:window-height="417"
   id="namedview505"
   showgrid="false"
   showguides="true"
   inkscape:guide-bbox="true"
   inkscape:snap-bbox="false"
   inkscape:zoom="0.7984555"
   inkscape:cx="209.41773"
   inkscape:cy="-171.09605"
   inkscape:window-x="2"
   inkscape:window-y="2"
   inkscape:window-maximized="0"
   inkscape:current-layer="Layer_1" />
  <g
   id="g3636"
   transform="translate(-315,-210.00201)">
    <title
   id="title3881">Z</title>
    <g
   id="g473">
	<g
   id="g475">
		<path
   id="path477"
   d="M -530,49.998 C -530,77.613 -552.384,100 -580,100 -607.613,100 -630,77.613 -630,49.998 -630,22.385 -607.613,0 -580,0 c 27.616,0 50,22.385 50,49.998 z"
   inkscape:connector-curvature="0"
   style="fill:#c9c4be" />
	</g>
	<g
   id="g479">
		<path
   id="path481"
   d="m -555.645,79.999 h -53.76 v -2.711 l 42.635,-57.22 h -18.979 c -3.118,0.063 -5.517,0.391 -7.2,0.981 -1.683,0.594 -3.242,1.73 -4.675,3.413 -0.125,0.126 -0.233,0.25 -0.327,0.374 -0.093,0.126 -0.203,0.25 -0.327,0.373 -0.25,0.375 -0.483,0.702 -0.702,0.982 -0.219,0.28 -0.42,0.577 -0.607,0.889 -0.063,0.188 -0.156,0.374 -0.28,0.561 -0.125,0.188 -0.25,0.375 -0.374,0.562 -0.126,0.374 -0.281,0.765 -0.467,1.168 -0.188,0.406 -0.407,0.889 -0.654,1.449 l -3.367,-0.094 V 16.235 h 51.049 v 2.524 l -43.007,57.406 h 18.605 c 2.805,0.063 5.033,0 6.685,-0.188 1.65,-0.187 3.193,-0.59 4.628,-1.213 0.187,-0.063 0.358,-0.125 0.514,-0.188 0.156,-0.063 0.295,-0.124 0.421,-0.188 0.873,-0.436 1.714,-0.935 2.524,-1.496 0.809,-0.561 1.62,-1.215 2.431,-1.963 0.561,-0.562 1.122,-1.168 1.683,-1.822 0.561,-0.655 1.153,-1.388 1.777,-2.197 l 2.431,-3.461 h 3.552 l -4.209,16.55 z"
   inkscape:connector-curvature="0"
   style="fill:#0d0f0f" />
	</g>
</g>
  </g>
</svg>